<?xml version="1.0" encoding="utf-8"?>
<svg class="artwork-L5TAwQ" preserveAspectRatio="xMinYMin slice" viewBox="0 0 1700 1200" xmlns="http://www.w3.org/2000/svg" xmlns:xlink="http://www.w3.org/1999/xlink">
  <defs>
    <linearGradient id="linear-gradient-5" x1="693.92" x2="693.92" y1="1235.03" y2="1193.91" gradientTransform="rotate(-21.3 -1852.872 -1403.071)" gradientUnits="userSpaceOnUse">
      <stop offset="0" stop-color="#66bcff"/>
      <stop offset="1" stop-color="#8cd9ff"/>
    </linearGradient>
    <path id="text-path-0" d="M 238.2259979248047 250.33722496032715 Q 276.31057357788086 232.56637573242188 314.39514923095703 250.33722496032715"/>
  </defs>
  <path d="M -0.826 -2.079 L 1699.609 -2.079 L 1699.609 1198.155 L -0.826 1198.155 Z" data-name="Layer 4" style="fill: rgb(176, 214, 255);"/>
  <g data-name="Layer 5" style="" transform="matrix(1.150954, 0, 0, 1.649404, -76.231598, -184.655838)">
    <path d="M 829.338 347.193 C 827.238 347.193 825.138 347.393 823.038 347.493 C 788.745 283.762 708.1 261.698 646.138 299.093 C 588.593 220.726 467.792 234.041 428.697 323.061 C 425.261 330.885 422.628 339.037 420.838 347.393 C 418.131 345.232 415.255 343.293 412.238 341.593 C 378.038 321.693 333.538 334.593 312.938 370.193 C 294.538 401.893 301.338 441.093 327.338 463.293 C 313.138 472.393 304.038 486.293 304.038 501.893 C 304.038 529.293 332.038 551.493 366.738 551.493 C 378.881 551.571 390.861 548.688 401.638 543.093 C 444.224 630.581 565.549 639.161 620.024 558.537 C 629.716 544.192 636.358 528.01 639.538 510.993 C 692.192 547.629 763.952 538.938 806.338 490.793 C 853.97 506.538 903.051 471.06 903.038 420.893 C 903.038 380.189 870.042 347.193 829.338 347.193 Z" style="fill: rgba(106, 206, 252, 0.5);"/>
    <path d="M 997.748 322.129 C 984.154 322.158 970.906 326.422 959.848 334.329 C 934.756 283.445 863.99 278.805 832.469 325.977 C 824.407 338.042 820.086 352.218 820.048 366.729 C 820.058 371.052 820.426 375.367 821.148 379.629 C 788.248 394.629 757.048 419.829 733.748 452.429 L 997.748 452.429 C 1047.9 450.464 1077.118 394.944 1050.34 352.493 C 1038.881 334.327 1019.21 322.97 997.748 322.129 Z" style="fill: rgba(106, 206, 252, 0.5);"/>
    <path d="M 1048.242 526.101 C 1106.163 458.239 1068.901 353.123 981.17 336.893 C 923.223 326.173 866.457 360.642 849.242 417.001 C 773.398 367.433 672.336 418.556 667.33 509.023 C 662.324 599.49 757.129 661.451 837.979 620.552 C 843.403 617.809 848.606 614.649 853.542 611.101 C 878.991 663.781 951.924 669.157 984.822 620.778 C 987.064 617.48 989.044 614.01 990.742 610.401 C 1023.189 632.533 1067.427 611.241 1070.37 572.075 C 1071.736 553.898 1063.301 536.373 1048.242 526.101 Z" style="fill: rgba(106, 206, 252, 0.5);"/>
    <path d="M 530.164 792.116 C 506.679 792.096 483.801 789.244 464.7 783.955 C 421.36 817.994 299.131 821.101 244.685 789.541 C 230.761 781.471 223.297 771.986 223.232 762.28 C 223.248 759.387 223.884 756.5 225.132 753.65 C 168.304 743.614 114.416 726.756 74.168 704.946 L 530.164 704.946 C 616.785 706.26 667.252 743.403 621.002 771.803 C 601.208 783.957 567.231 791.554 530.164 792.116 Z" style="fill: rgba(106, 206, 252, 0.5);" transform="matrix(-1, 0, 0, -1, 712.695251, 1516.401489)"/>
  </g>
  <path d="M 982.934 128.854 L 728.267 128.854 C 726.835 128.886 725.907 127.343 726.596 126.079 C 726.664 125.954 726.747 125.837 726.841 125.731 C 742.098 107.364 764.923 106.427 789.608 111.237 C 803.501 57.325 865.896 57.949 887.17 91.122 C 909.871 73.505 985.787 71.568 986.531 125.168 C 986.566 127.194 984.945 128.854 982.934 128.854 Z" data-name="Layer 25" style="fill: rgba(106, 206, 252, 0.5);"/>
  <path d="M 1656.78 725.731 C 1656.157 699.027 1626.859 683.01 1604.043 696.902 C 1597.638 700.802 1592.669 706.671 1589.88 713.631 C 1587.324 713.025 1584.706 712.723 1582.08 712.731 C 1571.347 712.742 1561.169 717.501 1554.28 725.731 L 1656.78 725.731 Z" data-name="Layer 23" style="fill: rgba(106, 206, 252, 0.5);"/>
  <g data-name="Layer 22">
    <path d="M284.3 406.3c-4.7-22.1-2.4-28.1-18-48.9-5-6.7-27.8-5.3-38-3.4-12.1 2.7-25.3 19.1-25.3 19.1 10.4 56.3 18.9 50.5 22.2 69s-.1 26.3 20.9 26.3 35.7-9 28.8-27.1c11.6-3.7 13.8-14.1 9.4-35zM126.5 328.4c-4.4 48 12 45.7 60.4 26.9z" style="fill: rgba(68, 88, 242, 0.4);"/>
    <path d="M366.5 370.5l-43.2 32c2.3 1.3 3.6 1.4 6.1 0s8.2-8 10.6-9.8 9-5.5 12.4-7.4a55 55 0 0011.1-8.4c2.7-3 3.7-4 3-6.4z"/>
    <path d="M214.3 184.1a97.9 97.9 0 00-92.7 129.1l92.7 66.6a97.9 97.9 0 000-195.7z" style="fill: rgb(242, 255, 0);"/>
    <path fill="#0c1aad" d="M242.3 291.3c-9.1-4-9.4-3.9-15.1-11.7s-12-11-19-11l15.4 60.7c18.6 2.7 28.7-7.9 30.1-17.2s-2.3-16.8-11.4-20.8z"/>
    <path fill="#0c1aad" d="M234.7 300.6c-3.3-9.7-11-20.5-19.2-28.4a26.7 26.7 0 01-8.2-22.4l1.6-14.2a42.6 42.6 0 00-19.1-40.7 43.5 43.5 0 00-9.7-4.7 42.2 42.2 0 00-16.7-2 42.7 42.7 0 00-39.5 42.6 48.9 48.9 0 00.3 5.4l.7 5.8 3.2 24.8a72.5 72.5 0 01-3.5 33.3 58 58 0 00-3 13.1l75.5 62.1a58.3 58.3 0 0037.6-74.7z"/>
    <path fill="none" stroke="#000" stroke-linecap="round" stroke-miterlimit="10" stroke-width="2.201" d="M197.1 375.3a58.3 58.3 0 0037.6-74.7c-3.3-9.7-11-20.5-19.2-28.4"/>
    <path fill="#0c1aad" d="M213.4 305.8c5.2-11.4 7.9-10.4 19.6-9 9.3 1.1 21.9 18.2 9 29.5s-42.2 9.7-28.6-20.5z"/>
    <circle cx="176.4" cy="277.3" r="3"/>
    <circle cx="194" cy="276" r="3"/>
    <path fill="none" stroke="#fff" stroke-linecap="round" stroke-miterlimit="10" stroke-width="2.7" d="M194 276c16.1 10 10.9 19.6 24.9 35.8"/>
    <path fill="#ffc619" d="M180.3 305.5c8.4-7.7 10.9-9.8 14.3-10.1s9.2-.5 9.2-.5l1.6 36.7-22.8 2.6z"/>
    <path d="M223.5 290a3.3 3.3 0 00-3.4-4h-15.5a4.8 4.8 0 00-4.7 4l-5.2 32.9a3.4 3.4 0 003.5 4h15.5a5 5 0 004.7-4z"/>
    <path d="M222.5 286.9L224.3 288.6 219.8 289.7 222.5 286.9z"/>
    <path fill="#ffc619" d="M232.2 306.9c-2.2-2.9-4.5-6.7-9.8-6.7v6.7z"/>
    <path fill="#fff" d="M225.2 291.6a3.4 3.4 0 00-3.5-4h-15.5a5 5 0 00-4.7 4l-5.1 32.8a3.3 3.3 0 003.4 4h15.5a4.8 4.8 0 004.7-4z"/>
    <path fill="#ffc619" d="M221.9 304.8h6.3a4.9 4.9 0 014.9 4.8 4.9 4.9 0 01-4.9 5.1h-4.6a6.5 6.5 0 01-6.3-5c-.4-2.7 1.6-4.9 4.6-4.9z"/>
    <path fill="#ffc619" d="M220.8 314.4h4.4a4.9 4.9 0 014.8 5.8 4.8 4.8 0 01-4.8 4h-2.7a6.5 6.5 0 01-6.3-4.9c-.4-2.7 1.6-4.9 4.6-4.9z"/>
    <path fill="#ffc619" d="M194 325.9H209.2V331.94H194z"/>
    <path fill="#ffc619" d="M210.1 307.3h-9.5a2.3 2.3 0 01-2.2-1.4l-1.1-2.4-1.2-4.9-3.3 18.5h15.6a6.5 6.5 0 006.3-4.9c.4-2.7-1.6-4.9-4.6-4.9z"/>
    <path fill="#ffc619" d="M208.1 317.1h-15.3l1.9 9.9h11.7c2.9 0 5.8-2.2 6.2-4.9s-1.5-5-4.5-5z"/>
    <path fill="#66bcff" d="M320.7 362.9c-1.1-14.9-13.8-15.5-22.8-19.6s-20.1-13.6-31.3-19.7-20.2-4.4-37.1 3.4l24.2 36c12.1 4.2 15.2 10.1 22.3 17.9s15.5 9.8 23.6 7.2c5 6.3 6 7.8 11.9 4.8s15.8-9.3 17.7-17.7-2.4-9.4-8.5-12.3z"/>
    <path fill="#45aaf7" d="M313.1 388h-.1c-5.3-.6-7.8-3.2-11.6-7.2-.9-1.1-2-2.2-3.3-3.5-14.6-.9-21.3-7.7-25.1-12.7-1.7-2.4-4.7-4-7.6-5.7s-5.6-3.2-7.5-5.5a29.7 29.7 0 01-3.6-5.4c-1.5-2.6-2.6-4.5-4.5-4.7s-4.8 1.2-7.6 2.9a37.2 37.2 0 01-8 3.9.9.9 0 01-1.1-.6.8.8 0 01.6-1.1 34.9 34.9 0 007.5-3.7c3.1-1.9 5.8-3.5 8.8-3.2s4.2 2.8 5.8 5.6a57 57 0 003.4 5.2c1.7 2 4.4 3.5 7.1 5.1s6.2 3.5 8.2 6.1c3.8 5.2 10.1 11.3 24.1 12h.3l.3.2 3.5 3.7c3.6 3.9 5.8 6.2 10.5 6.7a.9.9 0 01.8 1 1.1 1.1 0 01-.9.9z"/>
    <path fill="none" stroke="#000" stroke-linecap="round" stroke-miterlimit="10" stroke-width="2.201" d="M250.4 340.3a83.6 83.6 0 00-1.5 18.6"/>
    <path fill="#8cd9ff" d="M266.6 410.7c-11.4 13.1-22.5 11.5-27.5 11.6s-4.9-3.5-5.7-6.4-1.5-7.6-1.5-7.6c-12.7 1-15.2-7.3-16.3-14.9-.8-5.8-3.2-8.4-4.7-13.6a97.8 97.8 0 01-77.4-42.5l12.2-11.4 31.3 14.7c19-10 29.6-15.3 40.1-17.6s21.6.4 26.6 14.6 6 18.8 10 25.4l4.4 6.4c4.8 7.3 10.1 17.7 3.5 30.9a70.8 70.8 0 005 10.4z"/>
    <path d="M158.1 362c-1.6-9.7 1.5-17.1 8.1-19.2l-18.5-9.3-11.7 7a96 96 0 0022.1 21.5z"/>
    <path fill="#66bcff" d="M242.8 416.8V415c-2.5-.1-2.9-1.9-4.5-10.3l-.2-1.1h-.7c-5.7-.6-9.8-3.3-11.3-14.5a37.7 37.7 0 00-4.9-15 34 34 0 01-1.6-3.4c-.4-1.1-.9-2.1-1.3-3.1a22.2 22.2 0 01-2.7-12c.1-4.4-.5-6.6-2.1-7.6s-4.8-.3-9.8 2.1l-.7.3c-7.8 3.8-23.5 11.3-39.9 15l2.3 1.4c15.8-3.9 30.8-11.1 38.4-14.8l.7-.3c3.9-1.9 6.8-3 8.1-2.2s1.3 2.5 1.2 6a25.8 25.8 0 002.8 12.9c.5 1 .9 1.9 1.3 2.9a31.4 31.4 0 001.8 3.7c1.6 2.9 3.5 6.5 4.6 14.4 1.4 10.2 5 14.9 12.2 15.9 1.6 8.2 2.2 11.3 6.3 11.5z"/>
    <path fill="#0c1aad" d="M180.3 303.5c-4.3-2.9-7.4-2.2-12 .5-5.7-3.8-12.4-3.6-19.1-.2-4.9 2.4-16.9 7.8-22.9 10.5a2.1 2.1 0 01-2.9-2.2l2.8-17.2c-13.5 13.1-15.8 37.3-9.7 49.5s26.6 9.1 32.7 4.7 8.2-6 15.8-5.6 13.6.4 22.5-8.4l5.6-2.8c.9-12.9-2.1-21.6-12.8-28.8z"/>
    <path fill="none" stroke="#000" stroke-linecap="round" stroke-miterlimit="10" stroke-width="2.201" d="M180.3 303.5c-4.3-2.9-7.4-2.2-12 .5-5.7-3.8-12.4-3.6-19.1-.2-4.9 2.4-16.9 7.8-22.9 10.5M169.3 304.5c12.5 7.7 16.1 17.7 17.6 24.4"/>
    <path fill="#fff" d="M255.6 258.2h-17.1a.8.8 0 00-.8.7l-2.2 13.9a.8.8 0 001.3.8l19.3-13.9a.8.8 0 00-.5-1.5z"/>
    <path d="M294.9 262.9c10.4 0 20.3-8.4 21.9-18.7v-.5c1.7-10.2-5.6-18.7-16-18.7H243c-10.4 0-20.3 8.5-21.9 18.7v.5c-1.7 10.3 5.5 18.7 16 18.7z" style="fill: rgb(255, 255, 255);"/>
    <path d="M209.8 294.1a1.5 1.5 0 00-1.4-1.7H207a1.9 1.9 0 00-1.7 1.4l-.7 4.7a1.5 1.5 0 001.4 1.7h1.4a1.7 1.7 0 001.6-1.4z" style="fill: rgb(198, 41, 204);"/>
    <path fill="#ffc619" d="M184.6 270.7A16.5 16.5 0 01195 261c.2 0 .3-.2.2-.4-2.5-6.4-2-10.3-.2-15.4 0-.2-.1-.4-.3-.4-8.1-2.2-11.7-7.2-12.9-11.3a.4.4 0 00-.7 0c-2.7 7.3-7.3 8.2-11.4 8.3a.3.3 0 00-.3.5c4.8 7.1 2.7 13-.9 17.4a.3.3 0 00.2.6c8 .2 12.7 4.7 15.3 10.4a.3.3 0 00.6 0z"/>
    <path fill="none" stroke="#000" stroke-linecap="round" stroke-miterlimit="10" stroke-width="2.201" d="M208.1 317.1L200 317.1"/>
    <path fill="none" stroke="#000" stroke-linecap="round" stroke-miterlimit="10" stroke-width="2.201" d="M222.4 314.7L226.9 314.7"/>
    <path fill="none" stroke="#000" stroke-linecap="round" stroke-miterlimit="10" stroke-width="2.201" d="M181.4 233.3c2.7-8.3 1.8-13.6.6-16.5M194.1 245.2c5.5-.3 8.9-2.1 11.8-5.2M184.6 270.7a13 13 0 010 3.1M169.1 259.7c-4.7 4.4-12.5 4.9-18.1 4M169.7 241.8c-2.4-3.7-6.5-7.7-10-8.9M195.2 260.6a29.7 29.7 0 005.9 1.3"/>
    <path d="M178.7 247.8c3.5 8.8 6.5 7.9 7.5 5s1.7-6.6 4-6.6 2 3.8 0 9.7-6.1 7.8-10.7 3.6-5.2-9-5.7-12.3 2.9-4.5 4.9.6z" style="fill: rgb(34, 6, 196);"/>
    <path fill="none" stroke="#fff" stroke-linecap="round" stroke-miterlimit="10" stroke-width="2.7" d="M176.4 277.3c3.8 18.8-5 29.2-5.8 48.6"/>
    <path fill="none" stroke="#000" stroke-linecap="round" stroke-miterlimit="10" stroke-width="2.201" d="M209.9 378.5a46.4 46.4 0 01-.8-34.9M206.1 360c-2.9-3.7-3.3-9.5-3.3-9.5"/>
    <path fill="none" stroke="#000" stroke-linecap="round" stroke-miterlimit="10" stroke-width="2.201" d="M131.5 312L121.6 316.7"/>
    <path fill="none" stroke="#000" stroke-linecap="round" stroke-miterlimit="10" stroke-width="2.201" d="M234.5 296.5L240.2 297.4"/>
    <path d="M366.6 370.3a23.3 23.3 0 01-2.3 3.5c-4 5-13.5 11.4-18.7 14.2s-6.7 4-10.4 7.8-8.1 8.8-11.9 6.7-9.7-7.5-13.4-11.4a1.7 1.7 0 01-.4-1.7c1.4-5.8 6.7-14.5 15.2-19.9a1.9 1.9 0 011.8 0c5.7 3 9 3.5 13.3 2.8 6.4-.9 12.3-4.7 18.8-7.6s7.1.2 8 5.6z" style="fill: rgb(52, 21, 209);"/>
    <path d="M314.4 395.5a71.4 71.4 0 008.9 7c3.8 2.1 8.3-2.9 11.9-6.7s5.2-4.9 10.4-7.8 14.7-9.2 18.7-14.2a23.3 23.3 0 002.3-3.5c-.9-5.4-2.5-8-8-5.6s-8.4 4.3-12.6 5.9a7 7 0 00-4.3 5.9c-.1 1.5-.1 3.1-.1 4.9-7.7-.4-14.6 3-15.1 13 0 0-6.8-2.5-12.1 1.1z" style="fill: rgb(250, 128, 128);"/>
    <path fill="#ffe75c" d="M364.3 373.8a31.5 31.5 0 002.2-3.3 1.2 1.2 0 00.2-1 7.7 7.7 0 00-1.1-3c-.9 2.3-2.5 4.6-6.5 8.4-6.3 5.9-13.7 8.7-18.1 11a31 31 0 00-10.3 8.5 20.9 20.9 0 01-9 7.1l1.6 1c3.8 2.1 8.3-2.9 11.9-6.7s5.2-4.9 10.4-7.8 14.7-9.2 18.7-14.2z"/>
    <path d="M280.6 391.8c-7.3-.9-14.1 3.4-19.2 16.3-1.9-1.1-6.5-2-13.1.2s-8.6 5.3-9.5 7.8a6.1 6.1 0 000 4.2c.5 1.6 1.3 3.9 2.6 7.7 2 5.8 1.8 11.1 5.3 11.2l42.8-39.9s.5-6.3-8.9-7.5z" style="fill: rgb(21, 55, 209);"/>
    <path fill="#fa80ba" d="M280.6 391.8c-7.3-.9-14.1 3.4-19.2 16.3-.6 1.6-1.2 3.6-1.8 5.8-7.3.4-10.4 4-10.8 11.2 0 0-5.3-2.5-7.8 1.7.1.4.3.8.4 1.2 2 5.8 1.8 11.1 5.3 11.2l42.8-39.9s.5-6.3-8.9-7.5z"/>
    <path fill="#ffe75c" d="M289.1 397.3l-3.8-2.6c-6-.2-11 .3-15.6 7s-7.3 13.6-12.4 18.3c-7.3 6.9-13.6 10.2-14.2 14.6.7 2.7 1.5 4.5 3.6 4.6l42.8-39.9a6.5 6.5 0 00-.4-2z"/>
    <path fill="#d11583" d="M282.6 392.9l3.5.5a1.9 1.9 0 011.5.8c1.6 1.7 2.2 4.4 2.2 7l-12.4-.5c3.9-2.5 5-4.6 4.4-6.8a.7.7 0 01.8-1z"/>
    <path d="M246.9 439.2c12.1.7 17-3.7 21.5-9.7a36.5 36.5 0 016.7-6.9c6.6-5.1 11.7-10.1 14.7-17.4 3.8-9.2-9-10-15.8-2.8s-6.4 14.6-20.2 25.8c-9.4 7.7-10.5 10.8-6.9 11z"/>
    <ellipse cx="244.3" cy="417.4" fill="#fff" rx="1.6" ry="2.5" transform="rotate(-2.3 243.27 418.52)"/>
    <path fill="#d11583" d="M366.9 368.6a14.7 14.7 0 00-1.9-3.8.2.2 0 00-.4-.1h-.2a.4.4 0 00-.2.4c1 2.8 1.6 6 .4 8.2 2.9-2.9 2.3-4.2 2.3-4.7z"/>
    <ellipse cx="317.8" cy="387" fill="#fff" rx="2.4" ry="3.6" transform="rotate(-18.1 318.119 387.354)"/>
    <text style="fill: rgb(51, 51, 51); font-family: Arial, sans-serif; font-size: 16px; font-weight: 700; letter-spacing: 1.3px; word-spacing: 8.3px; white-space: pre;"><textPath startOffset="-1" xlink:href="#text-path-0">FlapFlap</textPath></text>
  </g>
  <path d="M240.6 690.9a30.2 30.2 0 01-13.5-20.8l-2.2-14.6a1.4 1.4 0 00-1.4-1.2 1.4 1.4 0 00-1.5 1.2l-2.2 14.6a29.7 29.7 0 01-13.4 20.8l-1.9 1.2a1.7 1.7 0 00-.7 1.3 1.5 1.5 0 00.7 1.2l1.9 1.2a29.7 29.7 0 0113.4 20.8l2.2 14.6a1.4 1.4 0 001.5 1.2 1.4 1.4 0 001.4-1.2l2.2-14.6a30.2 30.2 0 0113.5-20.8l1.8-1.2a1.3 1.3 0 00.7-1.2 1.5 1.5 0 00-.7-1.3z" data-name="Layer 20" style="fill: rgb(216, 145, 255);"/>
  <path d="M 1281.833 354.711 C 1275.809 350.862 1271.758 344.585 1270.733 337.511 L 1268.933 325.511 C 1268.84 324.908 1268.341 324.451 1267.733 324.411 C 1267.124 324.451 1266.625 324.908 1266.533 325.511 L 1264.733 337.511 C 1263.657 344.566 1259.618 350.825 1253.633 354.711 L 1252.033 355.711 C 1251.686 355.931 1251.463 356.302 1251.433 356.711 C 1251.463 357.12 1251.686 357.491 1252.033 357.711 L 1253.633 358.711 C 1259.623 362.638 1263.659 368.929 1264.733 376.011 L 1266.533 388.011 C 1266.631 388.595 1267.141 389.019 1267.733 389.011 C 1268.324 389.019 1268.834 388.595 1268.933 388.011 L 1270.733 376.011 C 1271.756 368.91 1275.804 362.601 1281.833 358.711 L 1283.433 357.711 C 1283.754 357.48 1283.941 357.106 1283.933 356.711 C 1283.941 356.316 1283.754 355.941 1283.433 355.711 Z" data-name="Layer 19" style="fill: rgb(255, 219, 102);"/>
  <path d="M 1221.722 915.342 C 1211.953 909.532 1205.362 900.114 1203.634 889.494 L 1200.71 871.417 C 1200.573 870.537 1199.753 869.887 1198.792 869.897 C 1197.831 869.887 1197.011 870.537 1196.873 871.417 L 1193.95 889.494 C 1192.222 900.114 1185.631 909.532 1175.861 915.342 L 1173.303 916.862 C 1172.767 917.207 1172.457 917.78 1172.481 918.383 L 1172.481 918.552 C 1172.457 919.155 1172.767 919.728 1173.303 920.072 L 1175.861 921.593 C 1185.648 927.386 1192.245 936.812 1193.95 947.441 L 1196.873 965.433 C 1196.968 966.346 1197.8 967.042 1198.792 967.038 C 1199.784 967.042 1200.616 966.346 1200.71 965.433 L 1203.634 947.441 C 1205.339 936.812 1211.935 927.386 1221.722 921.593 L 1224.28 920.072 C 1224.839 919.737 1225.181 919.167 1225.194 918.552 L 1225.194 918.383 C 1225.181 917.767 1224.839 917.198 1224.28 916.862 Z" data-name="Layer 18" style="fill: rgb(162, 52, 217);"/>
  <path fill="#ff78b9" d="M 1446.341 882.494 C 1442.359 880.415 1439.657 877.027 1438.924 873.194 L 1437.83 866.594 C 1437.702 866.281 1437.375 866.05 1436.979 865.994 C 1436.576 865.994 1436.249 866.263 1436.249 866.594 L 1435.033 873.194 C 1434.3 877.027 1431.599 880.415 1427.617 882.494 L 1426.644 883.094 C 1426.405 883.179 1426.257 883.38 1426.279 883.594 C 1426.257 883.808 1426.405 884.009 1426.644 884.094 L 1427.617 884.694 C 1431.599 886.774 1434.3 890.162 1435.033 893.994 L 1436.249 900.594 C 1436.249 900.926 1436.576 901.194 1436.979 901.194 C 1437.375 901.138 1437.702 900.908 1437.83 900.594 L 1438.924 893.994 C 1439.657 890.162 1442.359 886.774 1446.341 884.694 L 1447.313 884.094 C 1447.553 884.009 1447.7 883.808 1447.678 883.594 C 1447.7 883.38 1447.553 883.179 1447.313 883.094 Z" data-name="Layer 17" style=""/>
  <path fill="#ff78b9" d="M 844.936 1130.116 C 840.918 1128.261 838.233 1125.228 837.591 1121.821 L 836.4 1116.1 C 836.4 1115.814 836.003 1115.671 835.606 1115.671 C 835.209 1115.671 834.812 1115.814 834.812 1116.1 L 833.62 1121.821 C 832.978 1125.228 830.293 1128.261 826.276 1130.116 L 825.283 1130.545 L 824.886 1130.975 C 824.886 1131.118 825.085 1131.261 825.283 1131.404 L 826.276 1131.833 C 830.293 1133.688 832.978 1136.721 833.62 1140.128 L 834.812 1145.849 C 834.812 1146.135 835.209 1146.278 835.606 1146.278 C 836.003 1146.278 836.4 1146.135 836.4 1145.849 L 837.591 1140.128 C 838.233 1136.721 840.918 1133.688 844.936 1131.833 L 845.928 1131.404 C 846.127 1131.261 846.325 1131.118 846.325 1130.975 L 845.928 1130.545 Z" data-name="Layer 16" style=""/>
  <path d="M537.2 82.7a20.5 20.5 0 00-17 8.9 43.1 43.1 0 00-17.6-3.8 42.6 42.6 0 00-27.9 10.3h82.5a20.8 20.8 0 00-20-15.4z" data-name="Layer 13" style="fill: rgba(106, 206, 252, 0.5);"/>
  <g data-name="Layer 12" transform="matrix(1, 0, 0, 1, 61.595142, -25.907297)">
    <path fill="#808aff" d="M1519.2 121.3c-.1.2-.3.3-.4.2-3.1-2.2-4.5-1.8-5.3-.7s-.8 2.9-.5 5.5a1.1 1.1 0 01-.7 1.2c-.2.1-.5.1-.6-.1-2.1-2.1-3.2-3.1-4.7-3.4s-4.3.5-6.1 3.5l-6-6.5a20.1 20.1 0 007.5-11.6c.8-3.7 1.9-3.4 6-.1a55.3 55.3 0 0110.8 11.6.3.3 0 010 .4zM1465.7 131.6a.7.7 0 00.6-.1c2-2.6 3.5-2.8 4.6-2.3s1.7 1.9 2.2 3.7a.9.9 0 00.9.6c.2-.1.5-.2.6-.5.9-1.9 1.5-2.8 2.6-3.5a4.6 4.6 0 015.1.5l2.7-5.6a15.3 15.3 0 01-8-7.1c-1.9-3.2-2.7-2.7-5.4 1.2a37.8 37.8 0 00-6 12.6.4.4 0 00.1.5z"/>
    <circle cx="1491" cy="131.5" r="12.4" fill="#808aff"/>
    <path fill="#3442d9" d="M1526.7 74.3a1.1 1.1 0 01-1.1.6c-9.2-2.6-12.4-1-13.7 1.7s.2 5.9 2.6 10.3a1.8 1.8 0 01-.8 2.4 1.5 1.5 0 01-1.6 0c-5.7-2.6-8.7-3.8-12.2-3.7a9.4 9.4 0 00-9.1 7.8l-15.8-7.7c5-8.4 4.6-17 2.5-25.2s.3-9 13-4.8a136.4 136.4 0 0135.8 17.6 1 1 0 01.4 1z"/>
    <path fill="none" stroke="#000" stroke-linecap="round" stroke-linejoin="round" stroke-width="1.233" d="M1487.3 78.1c1.6 6.1 3.1 17.3 3.1 17.3"/>
    <path fill="#3442d9" d="M1412.2 111a1.1 1.1 0 001.2-.2c4.2-6 7.4-6.6 10-5.5s3.9 3.8 5.2 7.8a1.8 1.8 0 001.9 1.2 1.7 1.7 0 001.3-1c2-4.4 3.2-6.5 5.5-8.1s7-2.3 11.2.5l5.3-12.6c-8.9-2.9-14.4-8.6-18.5-14.9s-6.1-5.5-11.6 3.3a85.8 85.8 0 00-11.9 28.6.9.9 0 00.4.9z"/>
    <path fill="none" stroke="#000" stroke-linecap="round" stroke-linejoin="round" stroke-width="1.233" d="M1436.9 90.6a49.5 49.5 0 008.9 12.7"/>
    <path d="M1447.6 101.3c5.8-2.2 12.9 1.9 15.8 9.1s.6 14.9-5.2 17.2l16.8-1.1c14.2-5.5 21-13.2 15.5-27.3-4.1-10.4-13.5-13.8-26.3-8.8s-16.6 10.9-16.6 10.9z"/>
    <path fill="#fff" d="M1458.8 97.7c5.2 6.7 8.3 10.6 9.7 11.6s1.4.2.6-3.4-3.3-16.3-3.3-16.3z"/>
    <path fill="#808aff" d="M1450.3 105.6c3.8 4.9 6.1 7.8 7.1 8.5s1 .1.5-2.6-2.5-11.9-2.5-11.9z"/>
    <path fill="#fff" d="M1475.6 124.3c-.5-6.2-.8-9.8-.5-11s.7-.8 2 1.5l6.3 10.4z"/>
    <path fill="url(#linear-gradient-5)" d="M1451.6 125.2a7.7 7.7 0 014.7-4.8c3-1 6.6-1.6 14.2.1a12.4 12.4 0 007.8-.5c7.4-2.8 12.1-11.5 10.5-19.4s-8.9-11.9-16.3-9a16.5 16.5 0 00-8.4 7.5c-5 9.3-6.9 11.8-11.3 13.8a8.1 8.1 0 01-6.3.3c-4.8-1.8-7.1-7.9-4.1-15.4a27.4 27.4 0 1135.4 35.8 27.9 27.9 0 01-20.9-.4c-5.5-2.4-6.1-5.5-5.3-8z"/>
    <path fill="#eb459f" d="M1483.9 88.8a14.8 14.8 0 00-12.7-.6c-4.3 1.6-7.7 4.8-10.3 9.3s-8.1 13.4-13 13.6a7.2 7.2 0 01-6.1-2.7c0 .1.1.2.1.3a6.6 6.6 0 005.7 4h.4c4.4-.2 8.8-4.6 14.2-14.3a18.7 18.7 0 019.6-8.7 13.3 13.3 0 0111.4.5 14.1 14.1 0 017 10c1.9 9.1-3.4 19.2-11.8 22.5a15.5 15.5 0 01-8.9.5c-8.2-1.6-13.6-1.2-16.6 1.4l-.4.4a3.6 3.6 0 00-.6 4.3 4.9 4.9 0 012-3.5c2.5-2.3 7.7-2.6 15.3-1.1a16.1 16.1 0 009.8-.6c9-3.5 14.7-14.4 12.7-24.2a15.5 15.5 0 00-7.8-11.1z"/>
    <path fill="none" stroke="#000" stroke-linecap="round" stroke-linejoin="round" stroke-width="1.233" d="M1499.5 64.6c15.8 5.2 26.1 9.4 26.1 9.4M1513.3 88.3c-5.2-5.4-12.3-12.3-18.1-18M1429.9 112.9c-1.3-8.8-.7-22.4-.7-22.4M1412.6 110.4a119.9 119.9 0 0111.1-20.7"/>
    <path fill="#3442d9" d="M1403.9 154.3h-.4c-1.7-2.2-2.8-2.3-3.7-1.6a7.3 7.3 0 00-1.5 3.8c-.1.4-.4.8-.8.8-.2 0-.3-.1-.4-.3-1-1.9-1.6-2.8-2.7-3.4s-3.2-.6-5.2 1.2l-2.9-6a14.5 14.5 0 007.9-6.9c1.4-2.4 2.1-2 4.4 1.3a37.5 37.5 0 015.3 10.8.2.2 0 010 .3zM1362.8 150.1c.1.1.3.2.4.1 2.1-1.5 3.2-1.3 3.9-.6a4.7 4.7 0 01.7 3.1.6.6 0 00.5.6.7.7 0 00.6-.2 5.7 5.7 0 012.7-2 3.3 3.3 0 013.5 1.5l3.2-3.5a11.4 11.4 0 01-4.2-6.9c-.7-2.7-1.4-2.5-4.2-.3a27.3 27.3 0 00-7.1 7.9.2.2 0 000 .3z"/>
    <circle cx="1381.2" cy="155.6" r="9.4" fill="#3442d9"/>
  </g>
  <g data-name="Layer 9">
    <path fill="#ffe75c" d="M604.7 175.3l-15.7 1.5a7.7 7.7 0 00-3.5 1.2c-5.6 3.4-6.7 5.7-6.7 5.7l9.3 9 18.5-14.6z"/>
    <path fill="#ffc619" d="M549.6 178.7l2.3-2.6s12.1-1.1 16.7-1.2 14.6 4.2 20 13.3c5.7-9.2 13.5-12.4 16.1-12.9l1.9 2.8L587 195z"/>
    <path fill="#66bcff" d="M566.6 193.4a30.2 30.2 0 00-1.2 4c-.3 1.3.6 1.3 7.2 1.3h15.5c1.9.1 2.7-.8 1.7-4.4 5.7-6.5 15.7-13 19.4-15.3a.5.5 0 00.2-.7l-.9-1.1a.6.6 0 00-.6 0c-7.6 5-13.9 9.5-19.8 15.4-8-9.2-14.4-12.8-19.7-15.2a1.5 1.5 0 00-.9-.2l-20 1a1.1 1.1 0 00-1.1 1.1.9.9 0 00.6.9c13.1 5.7 19.6 13.2 19.6 13.2z"/>
    <path fill="#8cd9ff" d="M566.6 193.4a30.2 30.2 0 00-1.2 4c-.3 1.3.6 1.3 7.2 1.3h13c-1.7-.1-2-.5.1-4.7-2.6-3.9-8.6-9.6-17.6-14.5l-21.1.7c13.1 5.7 19.6 13.2 19.6 13.2z"/>
    <path fill="none" stroke="#000" stroke-linecap="round" stroke-miterlimit="10" stroke-width="1.521" d="M588.4 190.2L588.1 192.7"/>
    <path fill="#3442d9" d="M505.7 158.6l-.6-1c-.1-.1-.4-.2-.5-.1l-1.2.7-1.5-2.5-13.3.3a8.4 8.4 0 00-3 .8 28.4 28.4 0 00-3.3 2c-3.8-3.6-8.2-5.4-10.8-5.5s-14.2 0-14.2 0l-1.7 1.7h-2.2a1 1 0 00-.9.9.7.7 0 00.4.8 53.9 53.9 0 0110.9 7.2l1.6 1.4.7.8a16.5 16.5 0 012.6 2.8s-.9 2.2-1.2 3.3c0 .2-.1.3-.1.4a.5.5 0 00.4.5 7.5 7.5 0 002.4.4l3.4.2h10.8l2.2.2c1.6.1 2.3-.5 1.7-3.7 5.2-5.1 14-10 17.3-11.8.2.6.3.4.1.2z"/>
    <g>
      <path d="M543.3 128.7l-22.7 2.2a10.4 10.4 0 00-4.9 1.8c-7.6 4.9-8.9 8.4-8.9 8.4l15.3 13.1 24.6-21.4z" fill="#ffe75c"/>
      <path d="M463.2 133.9l2.9-3.8s17.5-1.7 24.2-1.8 22.1 6 31.8 19.3c6.6-13.5 17.5-18.2 21.2-18.9l3.4 4.1-25.8 24.8z" fill="#ffc619"/>
      <path d="M490.7 155.3s-.9 4-1.1 5.9 1.1 2 10.9 1.9h22.7c2.8.1 3.8-1.2 1.7-6.5 7.3-9.4 20.7-19 25.8-22.4a.7.7 0 000-1l-1.4-1.6a.8.8 0 00-.9-.1c-10.2 7.4-18.7 14-26.3 22.7-13.4-13.4-23.4-18.7-31.6-22.2a3 3 0 00-1.3-.2l-29.2 1.6a1.4 1.4 0 00-1.4 1.6 1.4 1.4 0 001 1.3c20.3 8.1 31.1 19 31.1 19z" fill="#eb459f"/>
      <path d="M490.7 155.3s-.9 4-1.1 5.9 1.1 2 10.9 1.9h19c-2.4-.1-3-.8-.7-6.8-4.4-5.7-14.3-14-28.4-21.1l-30.8 1.1c20.3 8.1 31.1 19 31.1 19z" style="fill: rgb(120, 165, 255);"/>
      <path stroke="#000" stroke-linecap="round" stroke-miterlimit="10" stroke-width="1.521" d="M522 150L522.2 151.9" fill="none"/>
    </g>
  </g>
  <path d="M 1345.444 1128.519 C 1355.298 1128.615 1362.802 1119.715 1361.044 1110.019 C 1345.216 1025.424 1243.745 989.687 1178.398 1045.692 C 1164.629 1057.493 1153.937 1072.466 1147.244 1089.319 C 1106.524 1080.428 1064.146 1093.83 1035.944 1124.519 C 1034.713 1125.897 1035.433 1128.091 1037.242 1128.469 C 1037.407 1128.503 1037.575 1128.52 1037.744 1128.519 L 1345.444 1128.519 Z" data-name="Layer 8" style="fill: rgba(106, 206, 252, 0.5);"/>
  <g data-name="Layer 9" transform="matrix(1, 0, 0, 1, 850.510254, 491.98703)">
    <path fill="#ffe75c" d="M604.7 175.3l-15.7 1.5a7.7 7.7 0 00-3.5 1.2c-5.6 3.4-6.7 5.7-6.7 5.7l9.3 9 18.5-14.6z"/>
    <path fill="#ffc619" d="M549.6 178.7l2.3-2.6s12.1-1.1 16.7-1.2 14.6 4.2 20 13.3c5.7-9.2 13.5-12.4 16.1-12.9l1.9 2.8L587 195z"/>
    <path fill="#66bcff" d="M566.6 193.4a30.2 30.2 0 00-1.2 4c-.3 1.3.6 1.3 7.2 1.3h15.5c1.9.1 2.7-.8 1.7-4.4 5.7-6.5 15.7-13 19.4-15.3a.5.5 0 00.2-.7l-.9-1.1a.6.6 0 00-.6 0c-7.6 5-13.9 9.5-19.8 15.4-8-9.2-14.4-12.8-19.7-15.2a1.5 1.5 0 00-.9-.2l-20 1a1.1 1.1 0 00-1.1 1.1.9.9 0 00.6.9c13.1 5.7 19.6 13.2 19.6 13.2z"/>
    <path fill="#8cd9ff" d="M566.6 193.4a30.2 30.2 0 00-1.2 4c-.3 1.3.6 1.3 7.2 1.3h13c-1.7-.1-2-.5.1-4.7-2.6-3.9-8.6-9.6-17.6-14.5l-21.1.7c13.1 5.7 19.6 13.2 19.6 13.2z"/>
    <path fill="none" stroke="#000" stroke-linecap="round" stroke-miterlimit="10" stroke-width="1.521" d="M588.4 190.2L588.1 192.7"/>
    <path fill="#3442d9" d="M505.7 158.6l-.6-1c-.1-.1-.4-.2-.5-.1l-1.2.7-1.5-2.5-13.3.3a8.4 8.4 0 00-3 .8 28.4 28.4 0 00-3.3 2c-3.8-3.6-8.2-5.4-10.8-5.5s-14.2 0-14.2 0l-1.7 1.7h-2.2a1 1 0 00-.9.9.7.7 0 00.4.8 53.9 53.9 0 0110.9 7.2l1.6 1.4.7.8a16.5 16.5 0 012.6 2.8s-.9 2.2-1.2 3.3c0 .2-.1.3-.1.4a.5.5 0 00.4.5 7.5 7.5 0 002.4.4l3.4.2h10.8l2.2.2c1.6.1 2.3-.5 1.7-3.7 5.2-5.1 14-10 17.3-11.8.2.6.3.4.1.2z"/>
    <g>
      <path fill="#ffe75c" d="M543.3 128.7l-22.7 2.2a10.4 10.4 0 00-4.9 1.8c-7.6 4.9-8.9 8.4-8.9 8.4l15.3 13.1 24.6-21.4z"/>
      <path fill="#ffc619" d="M463.2 133.9l2.9-3.8s17.5-1.7 24.2-1.8 22.1 6 31.8 19.3c6.6-13.5 17.5-18.2 21.2-18.9l3.4 4.1-25.8 24.8z"/>
      <path fill="#eb459f" d="M490.7 155.3s-.9 4-1.1 5.9 1.1 2 10.9 1.9h22.7c2.8.1 3.8-1.2 1.7-6.5 7.3-9.4 20.7-19 25.8-22.4a.7.7 0 000-1l-1.4-1.6a.8.8 0 00-.9-.1c-10.2 7.4-18.7 14-26.3 22.7-13.4-13.4-23.4-18.7-31.6-22.2a3 3 0 00-1.3-.2l-29.2 1.6a1.4 1.4 0 00-1.4 1.6 1.4 1.4 0 001 1.3c20.3 8.1 31.1 19 31.1 19z"/>
      <path fill="#ff78b9" d="M490.7 155.3s-.9 4-1.1 5.9 1.1 2 10.9 1.9h19c-2.4-.1-3-.8-.7-6.8-4.4-5.7-14.3-14-28.4-21.1l-30.8 1.1c20.3 8.1 31.1 19 31.1 19z"/>
      <path fill="none" stroke="#000" stroke-linecap="round" stroke-miterlimit="10" stroke-width="1.521" d="M522 150L522.2 151.9"/>
    </g>
  </g>
  <g data-name="Layer 9" transform="matrix(1, 0, 0, 1, 685.687805, -24.511173)">
    <path fill="#ffe75c" d="M 899.83 229.888 L 884.13 231.388 C 882.883 231.497 881.682 231.909 880.63 232.588 C 875.03 235.988 873.93 238.288 873.93 238.288 L 883.23 247.288 L 901.73 232.688 Z"/>
    <path fill="#ffc619" d="M 845.369 236.543 L 847.669 233.943 C 847.669 233.943 859.769 232.843 864.369 232.743 C 868.969 232.643 878.969 236.943 884.369 246.043 C 890.069 236.843 897.869 233.643 900.469 233.143 L 902.369 235.943 L 882.769 252.843 Z"/>
    <path fill="#66bcff" d="M 863.162 251.871 C 862.67 253.175 862.269 254.512 861.962 255.871 C 861.662 257.171 862.562 257.171 869.162 257.171 L 884.662 257.171 C 886.562 257.271 887.362 256.371 886.362 252.771 C 892.062 246.271 902.062 239.771 905.762 237.471 C 906.018 237.339 906.109 237.019 905.962 236.771 L 905.062 235.671 C 904.876 235.564 904.648 235.564 904.462 235.671 C 896.862 240.671 890.562 245.171 884.662 251.071 C 876.662 241.871 870.262 238.271 864.962 235.871 C 864.69 235.712 864.376 235.642 864.062 235.671 L 844.062 236.671 C 843.454 236.671 842.962 237.164 842.962 237.771 C 842.939 238.171 843.184 238.538 843.562 238.671 C 856.662 244.371 863.162 251.871 863.162 251.871 Z"/>
    <path fill="#8cd9ff" d="M 859.936 256.548 C 859.444 257.852 859.043 259.188 858.736 260.548 C 858.436 261.848 859.336 261.848 865.936 261.848 L 878.936 261.848 C 877.236 261.748 876.936 261.348 879.036 257.148 C 876.436 253.248 870.436 247.548 861.436 242.648 L 840.336 243.348 C 853.436 249.048 859.936 256.548 859.936 256.548 Z"/>
    <path fill="none" stroke="#000" stroke-linecap="round" stroke-miterlimit="10" stroke-width="1.521" d="M 884.524 248.81 L 884.224 251.31"/>
    <path fill="#3442d9" d="M505.7 158.6l-.6-1c-.1-.1-.4-.2-.5-.1l-1.2.7-1.5-2.5-13.3.3a8.4 8.4 0 00-3 .8 28.4 28.4 0 00-3.3 2c-3.8-3.6-8.2-5.4-10.8-5.5s-14.2 0-14.2 0l-1.7 1.7h-2.2a1 1 0 00-.9.9.7.7 0 00.4.8 53.9 53.9 0 0110.9 7.2l1.6 1.4.7.8a16.5 16.5 0 012.6 2.8s-.9 2.2-1.2 3.3c0 .2-.1.3-.1.4a.5.5 0 00.4.5 7.5 7.5 0 002.4.4l3.4.2h10.8l2.2.2c1.6.1 2.3-.5 1.7-3.7 5.2-5.1 14-10 17.3-11.8.2.6.3.4.1.2z"/>
    <g>
      <path fill="#ffe75c" d="M543.3 128.7l-22.7 2.2a10.4 10.4 0 00-4.9 1.8c-7.6 4.9-8.9 8.4-8.9 8.4l15.3 13.1 24.6-21.4z"/>
      <path fill="#ffc619" d="M463.2 133.9l2.9-3.8s17.5-1.7 24.2-1.8 22.1 6 31.8 19.3c6.6-13.5 17.5-18.2 21.2-18.9l3.4 4.1-25.8 24.8z"/>
      <path fill="#eb459f" d="M490.7 155.3s-.9 4-1.1 5.9 1.1 2 10.9 1.9h22.7c2.8.1 3.8-1.2 1.7-6.5 7.3-9.4 20.7-19 25.8-22.4a.7.7 0 000-1l-1.4-1.6a.8.8 0 00-.9-.1c-10.2 7.4-18.7 14-26.3 22.7-13.4-13.4-23.4-18.7-31.6-22.2a3 3 0 00-1.3-.2l-29.2 1.6a1.4 1.4 0 00-1.4 1.6 1.4 1.4 0 001 1.3c20.3 8.1 31.1 19 31.1 19z"/>
      <path d="M490.7 155.3s-.9 4-1.1 5.9 1.1 2 10.9 1.9h19c-2.4-.1-3-.8-.7-6.8-4.4-5.7-14.3-14-28.4-21.1l-30.8 1.1c20.3 8.1 31.1 19 31.1 19z" style="fill: rgb(255, 120, 248);"/>
      <path fill="none" stroke="#000" stroke-linecap="round" stroke-miterlimit="10" stroke-width="1.521" d="M522 150L522.2 151.9"/>
    </g>
  </g>
  <path d="M 220.927 508.247 L -2.251 508.247 C -3.506 508.336 -4.319 503.952 -3.715 500.355 C -3.655 500 -3.583 499.668 -3.501 499.366 C 9.87 447.144 29.873 444.48 51.506 458.157 C 63.681 304.868 118.361 306.644 137.004 400.962 C 156.898 350.872 223.427 345.366 224.079 497.767 C 224.11 503.527 222.69 508.249 220.927 508.247 Z" data-name="Layer 25" style="fill: rgba(106, 206, 252, 0.5);"/>
  <g data-name="Layer 9" transform="matrix(1, 0, 0, 1, -420.828918, -97.143684)">
    <path fill="#ffe75c" d="M604.7 175.3l-15.7 1.5a7.7 7.7 0 00-3.5 1.2c-5.6 3.4-6.7 5.7-6.7 5.7l9.3 9 18.5-14.6z"/>
    <path fill="#ffc619" d="M549.6 178.7l2.3-2.6s12.1-1.1 16.7-1.2 14.6 4.2 20 13.3c5.7-9.2 13.5-12.4 16.1-12.9l1.9 2.8L587 195z"/>
    <path fill="#66bcff" d="M566.6 193.4a30.2 30.2 0 00-1.2 4c-.3 1.3.6 1.3 7.2 1.3h15.5c1.9.1 2.7-.8 1.7-4.4 5.7-6.5 15.7-13 19.4-15.3a.5.5 0 00.2-.7l-.9-1.1a.6.6 0 00-.6 0c-7.6 5-13.9 9.5-19.8 15.4-8-9.2-14.4-12.8-19.7-15.2a1.5 1.5 0 00-.9-.2l-20 1a1.1 1.1 0 00-1.1 1.1.9.9 0 00.6.9c13.1 5.7 19.6 13.2 19.6 13.2z"/>
    <path fill="#8cd9ff" d="M566.6 193.4a30.2 30.2 0 00-1.2 4c-.3 1.3.6 1.3 7.2 1.3h13c-1.7-.1-2-.5.1-4.7-2.6-3.9-8.6-9.6-17.6-14.5l-21.1.7c13.1 5.7 19.6 13.2 19.6 13.2z"/>
    <path fill="none" stroke="#000" stroke-linecap="round" stroke-miterlimit="10" stroke-width="1.521" d="M588.4 190.2L588.1 192.7"/>
    <path fill="#3442d9" d="M505.7 158.6l-.6-1c-.1-.1-.4-.2-.5-.1l-1.2.7-1.5-2.5-13.3.3a8.4 8.4 0 00-3 .8 28.4 28.4 0 00-3.3 2c-3.8-3.6-8.2-5.4-10.8-5.5s-14.2 0-14.2 0l-1.7 1.7h-2.2a1 1 0 00-.9.9.7.7 0 00.4.8 53.9 53.9 0 0110.9 7.2l1.6 1.4.7.8a16.5 16.5 0 012.6 2.8s-.9 2.2-1.2 3.3c0 .2-.1.3-.1.4a.5.5 0 00.4.5 7.5 7.5 0 002.4.4l3.4.2h10.8l2.2.2c1.6.1 2.3-.5 1.7-3.7 5.2-5.1 14-10 17.3-11.8.2.6.3.4.1.2z"/>
    <g>
      <path fill="#ffe75c" d="M543.3 128.7l-22.7 2.2a10.4 10.4 0 00-4.9 1.8c-7.6 4.9-8.9 8.4-8.9 8.4l15.3 13.1 24.6-21.4z"/>
      <path fill="#ffc619" d="M463.2 133.9l2.9-3.8s17.5-1.7 24.2-1.8 22.1 6 31.8 19.3c6.6-13.5 17.5-18.2 21.2-18.9l3.4 4.1-25.8 24.8z"/>
      <path fill="#eb459f" d="M490.7 155.3s-.9 4-1.1 5.9 1.1 2 10.9 1.9h22.7c2.8.1 3.8-1.2 1.7-6.5 7.3-9.4 20.7-19 25.8-22.4a.7.7 0 000-1l-1.4-1.6a.8.8 0 00-.9-.1c-10.2 7.4-18.7 14-26.3 22.7-13.4-13.4-23.4-18.7-31.6-22.2a3 3 0 00-1.3-.2l-29.2 1.6a1.4 1.4 0 00-1.4 1.6 1.4 1.4 0 001 1.3c20.3 8.1 31.1 19 31.1 19z"/>
      <path fill="#ff78b9" d="M490.7 155.3s-.9 4-1.1 5.9 1.1 2 10.9 1.9h19c-2.4-.1-3-.8-.7-6.8-4.4-5.7-14.3-14-28.4-21.1l-30.8 1.1c20.3 8.1 31.1 19 31.1 19z"/>
      <path fill="none" stroke="#000" stroke-linecap="round" stroke-miterlimit="10" stroke-width="1.521" d="M522 150L522.2 151.9"/>
    </g>
  </g>
  <path d="M 195.236 44.115 C 185.391 44.063 176.161 49.355 170.591 58.245 C 162.568 54.289 153.874 52.233 145.076 52.212 C 130.237 52.164 115.879 57.969 104.628 68.564 L 224.23 68.564 C 220.702 54.189 208.828 44.177 195.236 44.115 Z" data-name="Layer 13" style="fill: rgba(106, 206, 252, 0.5);"/>
  <g data-name="Layer 9" transform="matrix(1, 0, 0, 1, -292.249634, 412.836609)">
    <path fill="#ffe75c" d="M604.7 175.3l-15.7 1.5a7.7 7.7 0 00-3.5 1.2c-5.6 3.4-6.7 5.7-6.7 5.7l9.3 9 18.5-14.6z"/>
    <path d="M549.6 178.7l2.3-2.6s12.1-1.1 16.7-1.2 14.6 4.2 20 13.3c5.7-9.2 13.5-12.4 16.1-12.9l1.9 2.8L587 195z" style="fill: rgb(198, 164, 61);"/>
    <path fill="#66bcff" d="M566.6 193.4a30.2 30.2 0 00-1.2 4c-.3 1.3.6 1.3 7.2 1.3h15.5c1.9.1 2.7-.8 1.7-4.4 5.7-6.5 15.7-13 19.4-15.3a.5.5 0 00.2-.7l-.9-1.1a.6.6 0 00-.6 0c-7.6 5-13.9 9.5-19.8 15.4-8-9.2-14.4-12.8-19.7-15.2a1.5 1.5 0 00-.9-.2l-20 1a1.1 1.1 0 00-1.1 1.1.9.9 0 00.6.9c13.1 5.7 19.6 13.2 19.6 13.2z"/>
    <path d="M566.6 193.4a30.2 30.2 0 00-1.2 4c-.3 1.3.6 1.3 7.2 1.3h13c-1.7-.1-2-.5.1-4.7-2.6-3.9-8.6-9.6-17.6-14.5l-21.1.7c13.1 5.7 19.6 13.2 19.6 13.2z" style="fill: rgb(255, 6, 6);"/>
    <path fill="none" stroke="#000" stroke-linecap="round" stroke-miterlimit="10" stroke-width="1.521" d="M588.4 190.2L588.1 192.7"/>
    <path fill="#3442d9" d="M505.7 158.6l-.6-1c-.1-.1-.4-.2-.5-.1l-1.2.7-1.5-2.5-13.3.3a8.4 8.4 0 00-3 .8 28.4 28.4 0 00-3.3 2c-3.8-3.6-8.2-5.4-10.8-5.5s-14.2 0-14.2 0l-1.7 1.7h-2.2a1 1 0 00-.9.9.7.7 0 00.4.8 53.9 53.9 0 0110.9 7.2l1.6 1.4.7.8a16.5 16.5 0 012.6 2.8s-.9 2.2-1.2 3.3c0 .2-.1.3-.1.4a.5.5 0 00.4.5 7.5 7.5 0 002.4.4l3.4.2h10.8l2.2.2c1.6.1 2.3-.5 1.7-3.7 5.2-5.1 14-10 17.3-11.8.2.6.3.4.1.2z"/>
    <g>
      <path fill="#ffe75c" d="M543.3 128.7l-22.7 2.2a10.4 10.4 0 00-4.9 1.8c-7.6 4.9-8.9 8.4-8.9 8.4l15.3 13.1 24.6-21.4z"/>
      <path fill="#ffc619" d="M463.2 133.9l2.9-3.8s17.5-1.7 24.2-1.8 22.1 6 31.8 19.3c6.6-13.5 17.5-18.2 21.2-18.9l3.4 4.1-25.8 24.8z"/>
      <path fill="#eb459f" d="M490.7 155.3s-.9 4-1.1 5.9 1.1 2 10.9 1.9h22.7c2.8.1 3.8-1.2 1.7-6.5 7.3-9.4 20.7-19 25.8-22.4a.7.7 0 000-1l-1.4-1.6a.8.8 0 00-.9-.1c-10.2 7.4-18.7 14-26.3 22.7-13.4-13.4-23.4-18.7-31.6-22.2a3 3 0 00-1.3-.2l-29.2 1.6a1.4 1.4 0 00-1.4 1.6 1.4 1.4 0 001 1.3c20.3 8.1 31.1 19 31.1 19z"/>
      <path d="M490.7 155.3s-.9 4-1.1 5.9 1.1 2 10.9 1.9h19c-2.4-.1-3-.8-.7-6.8-4.4-5.7-14.3-14-28.4-21.1l-30.8 1.1c20.3 8.1 31.1 19 31.1 19z" style="fill: rgb(17, 200, 232);"/>
      <path fill="none" stroke="#000" stroke-linecap="round" stroke-miterlimit="10" stroke-width="1.521" d="M522 150L522.2 151.9"/>
    </g>
  </g>
  <g data-name="Layer 9" transform="matrix(1, 0, 0, 1, 1042.949829, 231.653549)">
    <path fill="#ffe75c" d="M604.7 175.3l-15.7 1.5a7.7 7.7 0 00-3.5 1.2c-5.6 3.4-6.7 5.7-6.7 5.7l9.3 9 18.5-14.6z"/>
    <path fill="#ffc619" d="M549.6 178.7l2.3-2.6s12.1-1.1 16.7-1.2 14.6 4.2 20 13.3c5.7-9.2 13.5-12.4 16.1-12.9l1.9 2.8L587 195z"/>
    <path fill="#66bcff" d="M566.6 193.4a30.2 30.2 0 00-1.2 4c-.3 1.3.6 1.3 7.2 1.3h15.5c1.9.1 2.7-.8 1.7-4.4 5.7-6.5 15.7-13 19.4-15.3a.5.5 0 00.2-.7l-.9-1.1a.6.6 0 00-.6 0c-7.6 5-13.9 9.5-19.8 15.4-8-9.2-14.4-12.8-19.7-15.2a1.5 1.5 0 00-.9-.2l-20 1a1.1 1.1 0 00-1.1 1.1.9.9 0 00.6.9c13.1 5.7 19.6 13.2 19.6 13.2z"/>
    <path d="M566.6 193.4a30.2 30.2 0 00-1.2 4c-.3 1.3.6 1.3 7.2 1.3h13c-1.7-.1-2-.5.1-4.7-2.6-3.9-8.6-9.6-17.6-14.5l-21.1.7c13.1 5.7 19.6 13.2 19.6 13.2z" style="fill: rgb(140, 255, 142);"/>
    <path fill="none" stroke="#000" stroke-linecap="round" stroke-miterlimit="10" stroke-width="1.521" d="M588.4 190.2L588.1 192.7"/>
    <path fill="#3442d9" d="M505.7 158.6l-.6-1c-.1-.1-.4-.2-.5-.1l-1.2.7-1.5-2.5-13.3.3a8.4 8.4 0 00-3 .8 28.4 28.4 0 00-3.3 2c-3.8-3.6-8.2-5.4-10.8-5.5s-14.2 0-14.2 0l-1.7 1.7h-2.2a1 1 0 00-.9.9.7.7 0 00.4.8 53.9 53.9 0 0110.9 7.2l1.6 1.4.7.8a16.5 16.5 0 012.6 2.8s-.9 2.2-1.2 3.3c0 .2-.1.3-.1.4a.5.5 0 00.4.5 7.5 7.5 0 002.4.4l3.4.2h10.8l2.2.2c1.6.1 2.3-.5 1.7-3.7 5.2-5.1 14-10 17.3-11.8.2.6.3.4.1.2z"/>
    <g>
      <path d="M543.3 128.7l-22.7 2.2a10.4 10.4 0 00-4.9 1.8c-7.6 4.9-8.9 8.4-8.9 8.4l15.3 13.1 24.6-21.4z" style="fill: rgb(255, 255, 255);"/>
      <path d="M463.2 133.9l2.9-3.8s17.5-1.7 24.2-1.8 22.1 6 31.8 19.3c6.6-13.5 17.5-18.2 21.2-18.9l3.4 4.1-25.8 24.8z" style="fill: rgb(255, 255, 255);"/>
      <path fill="#eb459f" d="M490.7 155.3s-.9 4-1.1 5.9 1.1 2 10.9 1.9h22.7c2.8.1 3.8-1.2 1.7-6.5 7.3-9.4 20.7-19 25.8-22.4a.7.7 0 000-1l-1.4-1.6a.8.8 0 00-.9-.1c-10.2 7.4-18.7 14-26.3 22.7-13.4-13.4-23.4-18.7-31.6-22.2a3 3 0 00-1.3-.2l-29.2 1.6a1.4 1.4 0 00-1.4 1.6 1.4 1.4 0 001 1.3c20.3 8.1 31.1 19 31.1 19z"/>
      <path d="M490.7 155.3s-.9 4-1.1 5.9 1.1 2 10.9 1.9h19c-2.4-.1-3-.8-.7-6.8-4.4-5.7-14.3-14-28.4-21.1l-30.8 1.1c20.3 8.1 31.1 19 31.1 19z" style="fill: rgb(130, 95, 255);"/>
    </g>
  </g>
  <path d="M 1535.465 555.003 C 1529.442 551.155 1525.39 544.877 1524.365 537.803 L 1522.565 525.803 C 1522.472 525.2 1521.973 524.743 1521.365 524.703 C 1520.756 524.743 1520.257 525.2 1520.165 525.803 L 1518.365 537.803 C 1517.289 544.858 1513.25 551.117 1507.265 555.003 L 1505.665 556.003 C 1505.318 556.223 1505.096 556.594 1505.065 557.003 C 1505.096 557.412 1505.318 557.783 1505.665 558.003 L 1507.265 559.003 C 1513.255 562.93 1517.292 569.221 1518.365 576.303 L 1520.165 588.303 C 1520.263 588.887 1520.773 589.311 1521.365 589.303 C 1521.957 589.311 1522.466 588.887 1522.565 588.303 L 1524.365 576.303 C 1525.388 569.202 1529.437 562.893 1535.465 559.003 L 1537.065 558.003 C 1537.386 557.772 1537.573 557.398 1537.565 557.003 C 1537.573 556.608 1537.386 556.234 1537.065 556.003 Z" data-name="Layer 19" style="fill: rgb(255, 219, 102);"/>
  <path d="M 677.787 964.93 C 671.764 961.081 667.713 954.803 666.687 947.73 L 664.887 935.73 C 664.795 935.127 664.296 934.67 663.687 934.63 C 663.079 934.67 662.58 935.127 662.487 935.73 L 660.687 947.73 C 659.612 954.784 655.573 961.043 649.587 964.93 L 647.987 965.93 C 647.641 966.15 647.418 966.52 647.387 966.93 C 647.418 967.339 647.641 967.71 647.987 967.93 L 649.587 968.93 C 655.578 972.857 659.614 979.148 660.687 986.23 L 662.487 998.23 C 662.586 998.813 663.095 999.238 663.687 999.23 C 664.279 999.238 664.789 998.813 664.887 998.23 L 666.687 986.23 C 667.711 979.129 671.759 972.819 677.787 968.93 L 679.387 967.93 C 679.708 967.699 679.895 967.325 679.887 966.93 C 679.895 966.534 679.708 966.16 679.387 965.93 Z" data-name="Layer 19" style="fill: rgb(102, 186, 255);"/>
  <path d="M 1543.135 119.22 C 1536.344 119.188 1529.977 122.521 1526.135 128.12 C 1520.601 125.629 1514.604 124.334 1508.535 124.32 C 1498.299 124.29 1488.395 127.947 1480.635 134.62 L 1563.135 134.62 C 1560.701 125.566 1552.51 119.259 1543.135 119.22 Z" data-name="Layer 13" style="fill: rgba(106, 206, 252, 0.5);"/>
  <path d="M 1415.139 299.344 C 1405.403 299.302 1396.277 303.622 1390.768 310.881 C 1382.836 307.651 1374.238 305.972 1365.538 305.955 C 1350.865 305.916 1336.667 310.656 1325.542 319.307 L 1443.81 319.307 C 1440.321 307.57 1428.579 299.395 1415.139 299.344 Z" data-name="Layer 13" style="fill: rgba(106, 206, 252, 0.5);"/>
  <path d="M 1624.036 1015.317 C 1616.44 1015.267 1609.32 1020.4 1605.021 1029.026 C 1598.831 1025.187 1592.123 1023.193 1585.335 1023.172 C 1573.885 1023.126 1562.807 1028.758 1554.126 1039.036 L 1646.408 1039.036 C 1643.686 1025.092 1634.523 1015.378 1624.036 1015.317 Z" data-name="Layer 13" style="fill: rgba(106, 206, 252, 0.5);" transform="matrix(-1, 0, 0, -1, 3200.533936, 2054.352661)"/>
  <path d="M 1645.248 1016.016 L 1554.836 1016.016 C 1554.328 1016.041 1553.999 1014.865 1554.243 1013.902 C 1554.267 1013.807 1554.297 1013.718 1554.33 1013.637 C 1559.747 999.642 1567.85 998.928 1576.614 1002.593 C 1581.546 961.515 1603.697 961.991 1611.25 987.267 C 1619.309 973.844 1646.261 972.368 1646.525 1013.208 C 1646.537 1014.752 1645.962 1016.016 1645.248 1016.016 Z" data-name="Layer 25" style="fill: rgba(106, 206, 252, 0.5);"/>
  <g data-name="Layer 9" transform="matrix(1, 0, 0, 1, -247.336624, 919.15033)">
    <path fill="#ffe75c" d="M604.7 175.3l-15.7 1.5a7.7 7.7 0 00-3.5 1.2c-5.6 3.4-6.7 5.7-6.7 5.7l9.3 9 18.5-14.6z"/>
    <path d="M549.6 178.7l2.3-2.6s12.1-1.1 16.7-1.2 14.6 4.2 20 13.3c5.7-9.2 13.5-12.4 16.1-12.9l1.9 2.8L587 195z" style="fill: rgb(255, 255, 255);"/>
    <path fill="#66bcff" d="M566.6 193.4a30.2 30.2 0 00-1.2 4c-.3 1.3.6 1.3 7.2 1.3h15.5c1.9.1 2.7-.8 1.7-4.4 5.7-6.5 15.7-13 19.4-15.3a.5.5 0 00.2-.7l-.9-1.1a.6.6 0 00-.6 0c-7.6 5-13.9 9.5-19.8 15.4-8-9.2-14.4-12.8-19.7-15.2a1.5 1.5 0 00-.9-.2l-20 1a1.1 1.1 0 00-1.1 1.1.9.9 0 00.6.9c13.1 5.7 19.6 13.2 19.6 13.2z"/>
    <path d="M566.6 193.4a30.2 30.2 0 00-1.2 4c-.3 1.3.6 1.3 7.2 1.3h13c-1.7-.1-2-.5.1-4.7-2.6-3.9-8.6-9.6-17.6-14.5l-21.1.7c13.1 5.7 19.6 13.2 19.6 13.2z" style="fill: rgba(7, 4, 228, 0.26);"/>
    <path fill="none" stroke="#000" stroke-linecap="round" stroke-miterlimit="10" stroke-width="1.521" d="M588.4 190.2L588.1 192.7"/>
    <path d="M505.7 158.6l-.6-1c-.1-.1-.4-.2-.5-.1l-1.2.7-1.5-2.5-13.3.3a8.4 8.4 0 00-3 .8 28.4 28.4 0 00-3.3 2c-3.8-3.6-8.2-5.4-10.8-5.5s-14.2 0-14.2 0l-1.7 1.7h-2.2a1 1 0 00-.9.9.7.7 0 00.4.8 53.9 53.9 0 0110.9 7.2l1.6 1.4.7.8a16.5 16.5 0 012.6 2.8s-.9 2.2-1.2 3.3c0 .2-.1.3-.1.4a.5.5 0 00.4.5 7.5 7.5 0 002.4.4l3.4.2h10.8l2.2.2c1.6.1 2.3-.5 1.7-3.7 5.2-5.1 14-10 17.3-11.8.2.6.3.4.1.2z" style="fill: rgba(203, 52, 217, 0.42);"/>
    <g>
      <path d="M543.3 128.7l-22.7 2.2a10.4 10.4 0 00-4.9 1.8c-7.6 4.9-8.9 8.4-8.9 8.4l15.3 13.1 24.6-21.4z" style="fill: rgb(246, 246, 243);"/>
      <path fill="#ffc619" d="M463.2 133.9l2.9-3.8s17.5-1.7 24.2-1.8 22.1 6 31.8 19.3c6.6-13.5 17.5-18.2 21.2-18.9l3.4 4.1-25.8 24.8z"/>
      <path d="M490.7 155.3s-.9 4-1.1 5.9 1.1 2 10.9 1.9h22.7c2.8.1 3.8-1.2 1.7-6.5 7.3-9.4 20.7-19 25.8-22.4a.7.7 0 000-1l-1.4-1.6a.8.8 0 00-.9-.1c-10.2 7.4-18.7 14-26.3 22.7-13.4-13.4-23.4-18.7-31.6-22.2a3 3 0 00-1.3-.2l-29.2 1.6a1.4 1.4 0 00-1.4 1.6 1.4 1.4 0 001 1.3c20.3 8.1 31.1 19 31.1 19z" style="fill: rgb(255, 255, 255);"/>
      <path d="M490.7 155.3s-.9 4-1.1 5.9 1.1 2 10.9 1.9h19c-2.4-.1-3-.8-.7-6.8-4.4-5.7-14.3-14-28.4-21.1l-30.8 1.1c20.3 8.1 31.1 19 31.1 19z" style="fill: rgb(60, 21, 40);"/>
      <path fill="none" stroke="#000" stroke-linecap="round" stroke-miterlimit="10" stroke-width="1.521" d="M522 150L522.2 151.9"/>
    </g>
  </g>
  <path d="M 1674.577 56.426 C 1668.554 52.577 1664.503 46.299 1663.477 39.226 L 1661.677 27.226 C 1661.585 26.623 1661.086 26.166 1660.477 26.126 C 1659.869 26.166 1659.37 26.623 1659.277 27.226 L 1657.477 39.226 C 1656.402 46.28 1652.363 52.539 1646.377 56.426 L 1644.777 57.426 C 1644.431 57.646 1644.208 58.016 1644.177 58.426 C 1644.208 58.835 1644.431 59.206 1644.777 59.426 L 1646.377 60.426 C 1652.368 64.353 1656.404 70.644 1657.477 77.726 L 1659.277 89.726 C 1659.376 90.309 1659.885 90.734 1660.477 90.726 C 1661.069 90.734 1661.579 90.309 1661.677 89.726 L 1663.477 77.726 C 1664.501 70.625 1668.549 64.315 1674.577 60.426 L 1676.177 59.426 C 1676.498 59.195 1676.685 58.821 1676.677 58.426 C 1676.685 58.03 1676.498 57.656 1676.177 57.426 Z" data-name="Layer 19" style="fill: rgba(9, 245, 76, 0.56);"/>
  <g data-name="Layer 9" transform="matrix(1, 0, 0, 1, 319.584167, -102.772163)">
    <path fill="#ffe75c" d="M604.7 175.3l-15.7 1.5a7.7 7.7 0 00-3.5 1.2c-5.6 3.4-6.7 5.7-6.7 5.7l9.3 9 18.5-14.6z"/>
    <path fill="#ffc619" d="M549.6 178.7l2.3-2.6s12.1-1.1 16.7-1.2 14.6 4.2 20 13.3c5.7-9.2 13.5-12.4 16.1-12.9l1.9 2.8L587 195z"/>
    <path d="M566.6 193.4a30.2 30.2 0 00-1.2 4c-.3 1.3.6 1.3 7.2 1.3h15.5c1.9.1 2.7-.8 1.7-4.4 5.7-6.5 15.7-13 19.4-15.3a.5.5 0 00.2-.7l-.9-1.1a.6.6 0 00-.6 0c-7.6 5-13.9 9.5-19.8 15.4-8-9.2-14.4-12.8-19.7-15.2a1.5 1.5 0 00-.9-.2l-20 1a1.1 1.1 0 00-1.1 1.1.9.9 0 00.6.9c13.1 5.7 19.6 13.2 19.6 13.2z" style="fill: rgb(255, 102, 153);"/>
    <path d="M566.6 193.4a30.2 30.2 0 00-1.2 4c-.3 1.3.6 1.3 7.2 1.3h13c-1.7-.1-2-.5.1-4.7-2.6-3.9-8.6-9.6-17.6-14.5l-21.1.7c13.1 5.7 19.6 13.2 19.6 13.2z" style="fill: rgb(0, 208, 255);"/>
    <path fill="none" stroke="#000" stroke-linecap="round" stroke-miterlimit="10" stroke-width="1.521" d="M588.4 190.2L588.1 192.7"/>
    <path fill="#3442d9" d="M505.7 158.6l-.6-1c-.1-.1-.4-.2-.5-.1l-1.2.7-1.5-2.5-13.3.3a8.4 8.4 0 00-3 .8 28.4 28.4 0 00-3.3 2c-3.8-3.6-8.2-5.4-10.8-5.5s-14.2 0-14.2 0l-1.7 1.7h-2.2a1 1 0 00-.9.9.7.7 0 00.4.8 53.9 53.9 0 0110.9 7.2l1.6 1.4.7.8a16.5 16.5 0 012.6 2.8s-.9 2.2-1.2 3.3c0 .2-.1.3-.1.4a.5.5 0 00.4.5 7.5 7.5 0 002.4.4l3.4.2h10.8l2.2.2c1.6.1 2.3-.5 1.7-3.7 5.2-5.1 14-10 17.3-11.8.2.6.3.4.1.2z"/>
    <g>
      <path fill="#ffe75c" d="M543.3 128.7l-22.7 2.2a10.4 10.4 0 00-4.9 1.8c-7.6 4.9-8.9 8.4-8.9 8.4l15.3 13.1 24.6-21.4z"/>
      <path fill="#ffc619" d="M463.2 133.9l2.9-3.8s17.5-1.7 24.2-1.8 22.1 6 31.8 19.3c6.6-13.5 17.5-18.2 21.2-18.9l3.4 4.1-25.8 24.8z"/>
      <path fill="#eb459f" d="M490.7 155.3s-.9 4-1.1 5.9 1.1 2 10.9 1.9h22.7c2.8.1 3.8-1.2 1.7-6.5 7.3-9.4 20.7-19 25.8-22.4a.7.7 0 000-1l-1.4-1.6a.8.8 0 00-.9-.1c-10.2 7.4-18.7 14-26.3 22.7-13.4-13.4-23.4-18.7-31.6-22.2a3 3 0 00-1.3-.2l-29.2 1.6a1.4 1.4 0 00-1.4 1.6 1.4 1.4 0 001 1.3c20.3 8.1 31.1 19 31.1 19z"/>
      <path fill="#ff78b9" d="M490.7 155.3s-.9 4-1.1 5.9 1.1 2 10.9 1.9h19c-2.4-.1-3-.8-.7-6.8-4.4-5.7-14.3-14-28.4-21.1l-30.8 1.1c20.3 8.1 31.1 19 31.1 19z"/>
      <path fill="none" stroke="#000" stroke-linecap="round" stroke-miterlimit="10" stroke-width="1.521" d="M522 150L522.2 151.9"/>
    </g>
  </g>
  <path d="M 69.634 958.818 C 63.293 956.151 59.015 951.827 57.894 946.952 L 55.996 938.653 C 55.907 938.249 55.375 937.95 54.751 937.955 C 54.127 937.95 53.595 938.249 53.505 938.653 L 51.608 946.952 C 50.486 951.827 46.208 956.151 39.866 958.818 L 38.206 959.516 C 37.858 959.674 37.657 959.937 37.673 960.214 L 37.673 960.292 C 37.657 960.568 37.858 960.832 38.206 960.989 L 39.866 961.688 C 46.219 964.347 50.501 968.674 51.608 973.554 L 53.505 981.814 C 53.567 982.233 54.107 982.553 54.751 982.551 C 55.395 982.553 55.935 982.233 55.996 981.814 L 57.894 973.554 C 59 968.674 63.282 964.347 69.634 961.688 L 71.295 960.989 C 71.658 960.836 71.88 960.574 71.888 960.292 L 71.888 960.214 C 71.88 959.931 71.658 959.67 71.295 959.516 Z" data-name="Layer 18" style="fill: rgb(217, 52, 52);"/>
  <path d="M 296.881 908.31 C 290.683 906.188 286.493 902.756 285.373 898.883 L 283.498 892.267 C 283.412 891.952 282.903 891.719 282.305 891.723 C 281.674 891.695 281.114 891.933 281.026 892.267 L 279.151 898.883 C 278.103 902.76 273.933 906.2 267.729 908.31 L 266.11 908.854 C 265.751 908.991 265.533 909.208 265.513 909.442 C 265.532 909.665 265.756 909.868 266.11 909.986 L 267.729 910.531 C 273.933 912.639 278.103 916.081 279.151 919.957 L 281.026 926.574 C 281.114 926.906 281.674 927.145 282.305 927.118 C 282.903 927.121 283.412 926.888 283.498 926.574 L 285.373 919.957 C 286.493 916.084 290.683 912.652 296.881 910.531 L 298.415 909.986 C 298.794 909.882 299.026 909.671 299.011 909.442 C 299.02 909.205 298.794 908.981 298.415 908.854 Z" data-name="Layer 20" style="fill: rgb(0, 106, 255);"/>
  <path d="M 39.751 311.786 C 33.98 310.011 30.064 307.118 29.002 303.846 L 27.416 298.211 C 27.231 297.943 26.757 297.746 26.182 297.699 C 25.599 297.699 25.125 297.929 25.125 298.211 L 23.363 303.846 C 22.301 307.118 18.385 310.011 12.614 311.786 L 11.204 312.298 C 10.857 312.371 10.644 312.542 10.676 312.725 C 10.644 312.908 10.857 313.079 11.204 313.152 L 12.614 313.664 C 18.385 315.44 22.301 318.333 23.363 321.604 L 25.125 327.239 C 25.125 327.523 25.599 327.751 26.182 327.751 C 26.757 327.703 27.231 327.507 27.416 327.239 L 29.002 321.604 C 30.064 318.333 33.98 315.44 39.751 313.664 L 41.16 313.152 C 41.507 313.079 41.721 312.908 41.689 312.725 C 41.721 312.542 41.507 312.371 41.16 312.298 Z" data-name="Layer 17" style="fill: rgb(120, 255, 140);"/>
  <path d="M 1267.303 180.971 C 1260.011 180.912 1253.175 187.116 1249.049 197.538 C 1243.107 192.901 1236.667 190.49 1230.15 190.464 C 1219.16 190.409 1208.526 197.216 1200.192 209.637 L 1288.779 209.637 C 1286.165 192.784 1277.371 181.044 1267.303 180.971 Z" data-name="Layer 13" style="fill: rgba(106, 206, 252, 0.5);"/>
</svg>